<svg xmlns="http://www.w3.org/2000/svg" viewBox="0 0 296.05 245.11"><defs><style>.cls-1{fill:#e9e9e9;}.cls-2{fill:#fefefe;}.cls-3{fill:#79b8dc;}</style></defs><title>Asset 1</title><g id="Layer_2" data-name="Layer 2"><g id="Layer_1-2" data-name="Layer 1"><path class="cls-1" d="M296,246H1Q1,123.5,1,1H296l1,1V245ZM68.93,204.51a19,19,0,0,0,2.58.45q75.72,0,151.44,0c4.92,0,7-2.4,7-7.63.06-12.5,0-25,0-37.49a4.88,4.88,0,0,0-1.17-4H74.58c-.83,0-1.67.06-2.5,0-2.4-.17-3.18,1-3.17,3.3C69,174.16,68.93,189.14,68.93,204.51ZM174,95.35c.09,3.5-2,4.65-4.15,5.35-4.1,1.31-8.28,2.41-12.45,3.49-4.7,1.21-8.68,3.76-9.2,8.65-.68,6.37-.17,12.87-.17,19.59h77c0-5.86.4-11.37-.1-16.79-.61-6.66-4.37-10.17-10.76-11.74-4.51-1.1-8.93-2.58-13.4-3.87-2-.57-3.29-1.44-1.86-4.26,4,2.52,8.18,2.31,13,.36-3.27-2-2.77-5.07-2.84-8-.22-9.54,3.3-18.6,3.48-28.11.12-6.68-1.24-13-9.27-12.93-2.1,0-3.72-1.52-5-3-1.62-1.89-3.72-2.63-5.91-3.47-6.21-2.38-12.39-1.29-18.64-.31-6.75,1.06-9.93,5.54-11.52,11.54-1.91,7.22-.58,14.48-.15,21.76.45,7.71.81,15.53-2.07,23.08C165,99.2,169.12,96.95,174,95.35Zm73.39,55.53c1-2.93.29-5.47.64-7.9.7-4.81-1.18-6.14-6-6.13-61.66.16-123.32.1-185,.14-1.91,0-4-.65-5.87,1-.06,4.17-.7,8.45.44,12.88ZM89.78,112.48c2.87,4.7,1.78,9,2.63,13,.51,2.35.33,6.16,4.37,5.25,6.75-1.53,13.62-2.84,20-6.34-.83-6.52-1.87-12.89-2.41-19.3-.89-10.47-4.32-20.59-4-31.28.08-2.68-.66-6.13-2.75-8.32-5.85-6.15-12-12-18-18-2.23-2.23-4.4-.41-6.47.25-1.58.5-2.05,2-1.79,3.69,1.78,11.6,3,23.31,5.44,34.78A44.63,44.63,0,0,1,84,114.57c-2.48,5.55-4.1,11.49-6.15,17.36,3.36,1.67,4.85.68,5.84-2.35C85.45,124.1,87.53,118.72,89.78,112.48Z" transform="translate(-1 -0.95)"/><path class="cls-2" d="M297,2l-1-1Q297.29.71,297,2Z" transform="translate(-1 -0.95)"/><path class="cls-2" d="M296,246l1-1Q297.29,246.29,296,246Z" transform="translate(-1 -0.95)"/><path class="cls-3" d="M68.93,204.51c0-15.37,0-30.35,0-45.33,0-2.27.77-3.47,3.17-3.3.83.06,1.67,0,2.5,0H228.84a4.88,4.88,0,0,1,1.17,4c0,12.5.06,25,0,37.49,0,5.23-2.13,7.62-7,7.63q-75.72.08-151.44,0A19,19,0,0,1,68.93,204.51Z" transform="translate(-1 -0.95)"/><path class="cls-3" d="M174,95.35c-4.86,1.59-9,3.85-14.11,1.33,2.89-7.55,2.52-15.37,2.07-23.08-.43-7.29-1.76-14.54.15-21.76,1.59-6,4.77-10.48,11.52-11.54,6.26-1,12.44-2.07,18.64.31,2.19.84,4.29,1.58,5.91,3.47,1.28,1.49,2.9,3,5,3,8-.11,9.4,6.25,9.27,12.93-.18,9.5-3.7,18.57-3.48,28.11.07,2.94-.43,6,2.84,8-4.79,1.95-8.92,2.17-13-.36-1.43,2.82-.11,3.69,1.86,4.26,4.47,1.29,8.88,2.76,13.4,3.87,6.4,1.56,10.15,5.08,10.76,11.74.5,5.42.1,10.93.1,16.79H148c0-6.72-.51-13.22.17-19.59.52-4.89,4.51-7.44,9.2-8.65,4.17-1.08,8.34-2.18,12.45-3.49C172,100,174.06,98.85,174,95.35ZM216,120c-1.85.14-3.84-.64-5.5.38.07,2,2.22.88,2.53,2.47H202.13c.06-1.54,2.82-.31,2.25-2.6-3.32-.75-5.33-.63-5.33,4,0,4.51,1.52,5.66,5.81,5.57,11-.22,11,0,11.12-9.92l.2-.27Zm-48.5-54.71c1.47,2.45-2,5.14,0,6.93,3.47,3.15,3.27,7.45,4.82,11.18C175.06,90,183,94.5,188.78,92.86c6.33-1.79,16.32-15.56,16.16-22.26-.19-7.86-1.1-10.65-6.19-19C190.5,61.32,183.38,64.51,167.52,65.32ZM178.4,94.21a27.79,27.79,0,0,1-4.32,8.94c10,11.93,14.91,10.58,24.76-.48A29.48,29.48,0,0,0,196,98.84c-1.34-1.32-.23-3.33-1.59-4.54C183.91,96.07,183.91,96.07,178.4,94.21Z" transform="translate(-1 -0.95)"/><path class="cls-3" d="M247.37,150.89H51.58c-1.14-4.44-.5-8.71-.44-12.88,1.86-1.65,4-1,5.87-1,61.66,0,123.32,0,185-.14,4.84,0,6.72,1.31,6,6.13C247.66,145.42,248.4,148,247.37,150.89Z" transform="translate(-1 -0.95)"/><path class="cls-3" d="M89.78,112.48c-2.25,6.24-4.33,11.62-6.11,17.1-1,3-2.48,4-5.84,2.35,2-5.87,3.66-11.8,6.15-17.36a44.63,44.63,0,0,0,2.82-28.4C84.41,74.7,83.15,63,81.37,51.39c-.26-1.7.21-3.18,1.79-3.69,2.07-.66,4.23-2.48,6.47-.25,6,6,12.13,11.89,18,18,2.08,2.19,2.83,5.65,2.75,8.32-.34,10.68,3.1,20.8,4,31.28.54,6.41,1.58,12.78,2.41,19.3-6.33,3.5-13.21,4.81-20,6.34-4,.91-3.86-2.9-4.37-5.25C91.56,121.51,92.65,117.18,89.78,112.48Zm-.54-59.29c.6,4.29,1.08,7.88,1.61,11.46Q93.93,85.73,97,106.8c.51,3.45,2.26,5.34,6,5.16,2.65-.13,5.32.08,8,0,2,0,2.92-.77,2.53-3.14-1.76-10.75-3.26-21.54-5-32.3-.44-2.69.3-5.67-2.09-8C101.07,63.4,95.79,58.15,89.25,53.19Z" transform="translate(-1 -0.95)"/><path class="cls-1" d="M167.52,65.32c15.86-.81,23-4,31.23-13.75,5.09,8.38,6,11.17,6.19,19,.16,6.7-9.83,20.47-16.16,22.26-5.8,1.64-13.72-2.9-16.44-9.42-1.55-3.72-1.35-8-4.82-11.18C165.55,70.46,169,67.77,167.52,65.32Z" transform="translate(-1 -0.95)"/><path class="cls-1" d="M178.4,94.21c5.51,1.86,5.51,1.86,16,.09,1.35,1.21.24,3.22,1.58,4.54a29.48,29.48,0,0,1,2.87,3.83c-9.85,11.06-14.75,12.41-24.76.48A27.79,27.79,0,0,0,178.4,94.21Z" transform="translate(-1 -0.95)"/><path class="cls-1" d="M216,120c-.13,9.88-.13,9.7-11.12,9.92-4.29.09-5.81-1.07-5.81-5.57,0-4.68,2-4.8,5.33-4,.57,2.3-2.19,1.07-2.25,2.6H213c-.31-1.59-2.46-.42-2.53-2.47,1.66-1,3.65-.24,5.5-.38Z" transform="translate(-1 -0.95)"/><path class="cls-1" d="M216,120l.15-.32-.2.27Z" transform="translate(-1 -0.95)"/><path class="cls-1" d="M89.25,53.19c6.54,5,11.83,10.2,17.19,15.38,2.39,2.31,1.65,5.29,2.09,8,1.75,10.75,3.25,21.55,5,32.3.39,2.36-.55,3.1-2.53,3.14-2.66.05-5.33-.16-8,0-3.73.18-5.48-1.71-6-5.16q-3.09-21.08-6.18-42.15C90.33,61.07,89.85,57.49,89.25,53.19Z" transform="translate(-1 -0.95)"/></g></g></svg>