<svg xmlns="http://www.w3.org/2000/svg" viewBox="0 0 296 245"><defs><style>.cls-1{fill:#e9e9e9;}.cls-2{fill:#79b8dd;}</style></defs><title>Asset 3</title><g id="Layer_2" data-name="Layer 2"><g id="Layer_1-2" data-name="Layer 1"><path class="cls-1" d="M1,246Q1,123.5,1,1H297q0,122.5,0,245ZM199,137c2.69-.81,6.62.33,7.57-3.4,1.19-4.7,3.37-5.24,6.88-2.61,4-3.37,4.07-3.37,3.47-7.68a3.78,3.78,0,0,1,2.2-4.44c4.25-2.3,4.13-6.19-.28-8.53-2-1-2.47-2.51-1.5-4,2.35-3.62.54-5.75-2.08-7.81-5.67,2.17-6.12,2-7.29-3.46-.39-1.79-1.39-2.25-3-2.78-4.48-1.49-5.32,2.54-7.08,4.61-2.89,0-3.59-2.81-5.68-3.43-4.92,2.35-4.92,2.35-5.64,9.21a10.79,10.79,0,0,1-2.81.34c-2.39-.33-3.56.82-4.6,2.82-1.2,2.31-.39,3.69,1.35,5.12,2.23,1.83,2.14,3.69-.4,5.11-2,1.15-2.2,2.57-1.38,4.58A6.3,6.3,0,0,1,179,125l-6.19-.58c-3.06,7.87-3.46,7.93-7.7,8.73-4.42.83-8.29,1-11.16-3.22-1.39-2-2.93-1.85-5-.48-2.32,1.52-3.11,3.13-2.54,5.79,1.58,7.4-2.46,12.42-9.89,11.88-4.14-.3-4.9,2.75-6.15,5.23s.76,3.45,2.53,4.62c6.12,4,6,12-.33,15.91-2.24,1.39-3.54,2.44-2.25,5.47s2.38,4.85,6,4.34c7.26-1,11.81,4.51,9.78,11.6-.51,1.78-1.29,3.08.86,5.12,4.31,4.11,6.6,1.48,9.37-1.46,3.26-3.47,11.54-2,13,2.51,1.23,3.91,4.12,5.31,7.34,5,3.69-.36,3.26-4,3.4-6.77.34-6.69,5.12-9.56,11.29-6.72a16.81,16.81,0,0,1,2.67,1.34c2.81,2,4.29.5,6.06-1.75s2.27-4.07.18-6.51c-5.34-6.26-3-12.62,5.25-14.29,3.82-.77,4.75-2.57,4.08-6.29-.56-3.11-2.75-3.25-4.9-3.94-6.72-2.15-8.9-8.21-4.61-13.81,2.41-3.15,3.53-5.5-.56-7.94C199.12,138.55,199.15,137.6,199,137ZM137.78,41c-15.41-1.26-27.08,12.71-26.78,26.7.11,5.17,2.28,10.82-1.79,15.71-.51.61,0,2.26.34,3.35.78,2.71,1.61,5.42,2.6,8.07,3.06,8.2,5.53,16.63,12.69,22.68s13.79,8.08,19.74,3.95,11-8.81,13.67-15.88c2-5.26,3.07-10.81,5.91-15.8,1.26-2.21,1.78-5.52.29-7.71-2.47-3.65-2-7.54-1.25-11.05C166.37,55.82,154.33,40.38,137.78,41Zm-3.32,88.67c-3.91-1.85-8.21-3.09-11.49-5.65s-5.29-1.66-8.19.41c-4,2.85-8.15,6.18-12.75,7.37-18.72,4.85-24.4,19-26.13,34.11-.9,7.86.66,15.5,1.27,23.23a4.75,4.75,0,0,0,3.42,4.45c4.22,1.4,8.38,3.26,12.72,4,11.42,2,22.82,4.45,34.54,3.52,2.49-.2,5.18,1.68,7.53-.59C117.2,182.23,114.49,151.59,134.46,129.68Z" transform="translate(-1 -1)"/><path class="cls-2" d="M137.78,41c16.55-.63,28.58,14.81,25.43,30-.73,3.51-1.23,7.41,1.25,11.05,1.48,2.19,1,5.49-.29,7.71-2.84,5-4,10.54-5.91,15.8-2.63,7.07-7.85,11.84-13.67,15.88s-12.46,2.2-19.74-3.95S115.22,103,112.16,94.83c-1-2.64-1.82-5.35-2.6-8.07-.31-1.09-.85-2.74-.34-3.35,4.07-4.88,1.9-10.53,1.79-15.71C110.71,53.72,122.37,39.76,137.78,41Z" transform="translate(-1 -1)"/><path class="cls-2" d="M199,137c.17.62.14,1.56.54,1.8,4.09,2.43,3,4.79.56,7.94-4.29,5.6-2.1,11.66,4.61,13.81,2.15.69,4.33.83,4.9,3.94.67,3.72-.26,5.52-4.08,6.29-8.27,1.67-10.59,8-5.25,14.29,2.09,2.44,1.66,4.17-.18,6.51s-3.25,3.72-6.06,1.75a16.81,16.81,0,0,0-2.67-1.34c-6.17-2.84-11,0-11.29,6.72-.14,2.75.29,6.4-3.4,6.77-3.22.32-6.12-1.08-7.34-5-1.42-4.53-9.69-6-13-2.51-2.76,2.94-5.05,5.56-9.37,1.46-2.14-2-1.36-3.34-.86-5.12,2-7.09-2.52-12.62-9.78-11.6-3.65.51-4.78-1.42-6-4.34s0-4.08,2.25-5.47C138.88,169,139,161,132.9,157c-1.77-1.17-3.71-2.28-2.53-4.62s2-5.53,6.15-5.23c7.43.54,11.47-4.48,9.89-11.88-.57-2.66.22-4.27,2.54-5.79,2.09-1.37,3.63-1.56,5,.48,2.87,4.23,6.75,4,11.16,3.22,4.23-.79,4.64-.86,7.7-8.73L179,125l0,0c1.07,1.65,2.34,3.25,1.93,5.39-.75,3.89,1.17,5.79,4.46,7.59,2.88,1.57,5.21,2.49,8,.37,1.67-1.26,3.66-1.3,5.63-1.31Zm-30.71,13.82c-8.43,0-14.23,5.18-14.22,12.71,0,9.69,5.61,15.6,14.78,15.57a14.27,14.27,0,0,0,14.25-14.49C183.1,156.33,177.18,150.81,168.27,150.81Z" transform="translate(-1 -1)"/><path class="cls-2" d="M134.46,129.68c-20,21.91-17.26,52.55.94,70.84-2.36,2.27-5,.4-7.53.59-11.72.94-23.12-1.56-34.54-3.52-4.34-.74-8.5-2.6-12.72-4a4.75,4.75,0,0,1-3.42-4.45c-.61-7.73-2.16-15.37-1.27-23.23,1.73-15.13,7.41-29.26,26.13-34.11,4.59-1.19,8.75-4.51,12.75-7.37,2.9-2.07,4.81-3,8.19-.41S130.56,127.83,134.46,129.68Z" transform="translate(-1 -1)"/><path class="cls-2" d="M179,125a6.3,6.3,0,0,0-.29-4.39c-.82-2-.66-3.43,1.38-4.58,2.54-1.42,2.63-3.29.4-5.11-1.74-1.42-2.55-2.81-1.35-5.12,1-2,2.21-3.15,4.6-2.82a10.79,10.79,0,0,0,2.81-.34c.73-6.86.73-6.86,5.65-9.21,2.09.63,2.78,3.42,5.68,3.44,1.76-2.07,2.6-6.1,7.08-4.61,1.57.52,2.57,1,3,2.78,1.18,5.46,1.63,5.63,7.29,3.46,2.62,2.05,4.43,4.19,2.08,7.81-1,1.49-.47,3,1.5,4,4.4,2.34,4.52,6.23.28,8.53a3.78,3.78,0,0,0-2.2,4.44c.6,4.31.58,4.31-3.47,7.68-3.51-2.63-5.68-2.09-6.88,2.61-.95,3.73-4.87,2.58-7.57,3.4l0,0c-1-5.84-2.44-6.28-8.19-2.37L185.46,131c1.45-6.19,1-6.59-6.49-6Zm20.28-2.07c5,.07,9.71-4.19,9.56-8.71-.13-3.93-4.75-8.1-9.12-8.24s-8.52,4-8.61,8.33C191,119.3,194.42,122.88,199.3,122.95Z" transform="translate(-1 -1)"/><path class="cls-1" d="M168.27,150.81c8.91,0,14.83,5.52,14.8,13.78a14.27,14.27,0,0,1-14.25,14.49c-9.17,0-14.78-5.88-14.78-15.57C154,156,159.85,150.8,168.27,150.81Z" transform="translate(-1 -1)"/><path class="cls-1" d="M179,125c7.48-.59,7.93-.19,6.49,6l5.36,3.66c5.76-3.91,7.16-3.47,8.19,2.37-2,0-4,.06-5.63,1.31-2.81,2.12-5.15,1.21-8-.37-3.29-1.8-5.21-3.71-4.46-7.59C181.31,128.23,180,126.63,179,125Z" transform="translate(-1 -1)"/><path class="cls-1" d="M199.3,122.95c-4.88-.07-8.27-3.65-8.17-8.62.09-4.38,4.31-8.46,8.61-8.33s9,4.31,9.12,8.24C209,118.76,204.33,123,199.3,122.95Z" transform="translate(-1 -1)"/></g></g></svg>