<svg height="512" viewBox="0 0 192 192" width="512" xmlns="http://www.w3.org/2000/svg" xmlns:xlink="http://www.w3.org/1999/xlink"><linearGradient id="New_Gradient_Swatch_2" gradientUnits="userSpaceOnUse" x1="18.343" x2="173.657" y1="165.657" y2="10.343"><stop offset="0" stop-color="#34cdfa"/><stop offset="1" stop-color="#e8d9f1"/></linearGradient><g id="_30-bin" data-name="30-bin"><path d="m182.187 18.928a8 8 0 0 0 -6.187-2.928h-160a8 8 0 0 0 -7.845 9.569l32 160a8 8 0 0 0 7.845 6.431h96a8 8 0 0 0 7.845-6.431l32-160a8.005 8.005 0 0 0 -1.658-6.641zm-62.559 13.072-1.455 32h-44.346l-1.455-32zm-45.074 48h42.892l-1.091 24h-40.71zm1.818 40h39.256l-1.091 24h-37.074zm-50.613-88h30.6l1.451 32h-25.651zm9.6 48h23.178l1.091 24h-19.469zm8 40h17l1.091 24h-13.291zm11.2 56-3.2-16h10.814l.727 16zm24.359 0-.728-16h35.62l-.728 16zm58.523 0h-8.341l.727-16h10.814zm6.4-32h-13.287l1.091-24h17zm8-40h-19.469l1.091-24h23.178zm8-40h-25.651l1.455-32h30.6z" fill="url(#New_Gradient_Swatch_2)"/><path d="m0 16h192v16h-192z" fill="#01c0f9"/></g></svg>