<svg xmlns="http://www.w3.org/2000/svg" viewBox="0 0 512 512"><defs><style>.cls-1{fill:#fff;}.cls-2{fill:none;stroke:#000;stroke-miterlimit:10;stroke-width:27px;}</style></defs><title>Asset 4</title><g id="Layer_2" data-name="Layer 2"><g id="Layer_1-2" data-name="Layer 1"><path class="cls-1" d="M1,1H513V513H1Q1,257,1,1ZM257.16,378.08c6.82-.39,13.64-.65,20.45-1.21,4.64-.38,9.27-1,13.86-1.78,72.46-12.2,127.61-49.9,165.94-112.5,2.52-4.12,2.47-7.27-.1-11.28-53.16-83-129-122.53-227-112.56C154.61,146.46,97.06,186.29,57,251.15c-2.71,4.39-2.85,7.66-.08,12.08C103.29,337.11,170.44,374.55,257.16,378.08Z" transform="translate(-1 -1)"/><path d="M257.16,378.08c-86.73-3.53-153.88-41-200.24-114.85-2.77-4.42-2.63-7.69.08-12.08,40.06-64.86,97.61-104.69,173.32-112.39,98-10,173.84,29.58,227,112.56,2.57,4,2.62,7.16.1,11.28-38.34,62.6-93.48,100.3-165.94,112.5-4.59.77-9.22,1.4-13.86,1.78C270.81,377.43,264,377.69,257.16,378.08Zm0-215.87c-51.34-.38-94.42,42.13-94.91,93.64a95.14,95.14,0,0,0,94.13,95.93c51.85.52,95-42,95.43-94.16S309.7,162.6,257.12,162.21Zm-50.28,193.4c-37.89-22.1-59.73-54.34-59.67-98.78s22-76.57,60.09-98.36c-.32-.13-.5-.27-.63-.24C149.45,172.64,105,204.76,72.85,254.13c-1.64,2.51-1.14,4.25.38,6.23,7.47,9.78,14.31,20.13,22.52,29.24C125.87,323,163.12,344.82,206.84,355.61Zm100-197.29c38,22,59.91,54.2,59.93,98.63s-21.87,76.68-60.91,99c1.7-.33,2.33-.41,2.94-.57Q393,333.25,440.7,260.53c1.92-2.92,1.43-4.87-.3-7.54a219.82,219.82,0,0,0-77.07-72.64A206.8,206.8,0,0,0,306.88,158.32Z" transform="translate(-1 -1)"/><path class="cls-1" d="M257.12,162.21c52.58.39,95.11,43.26,94.66,95.41s-43.58,94.68-95.43,94.16a95.14,95.14,0,0,1-94.13-95.93C162.7,204.35,205.79,161.84,257.12,162.21ZM231,201.77c7.18,11,7.1,20.53,0,28.14-7.48,8-17,8.45-29.32,1.31-13.12,22.94-5,56.86,17.82,74.31a61.37,61.37,0,0,0,86.08-86.08C288.09,196.65,254.24,188.54,231,201.77Z" transform="translate(-1 -1)"/><path class="cls-1" d="M206.84,355.61c-43.72-10.79-81-32.57-111.09-66-8.21-9.11-15.05-19.46-22.52-29.24-1.52-2-2-3.72-.38-6.23,32.14-49.36,76.6-81.49,133.78-95.89.13,0,.31.11.63.24-38.13,21.79-60,54-60.09,98.36S168.95,333.51,206.84,355.61Z" transform="translate(-1 -1)"/><path class="cls-1" d="M306.88,158.32a206.8,206.8,0,0,1,56.44,22A219.82,219.82,0,0,1,440.39,253c1.73,2.67,2.22,4.62.3,7.54q-47.78,72.71-131.86,94.86c-.61.16-1.24.24-2.94.57,39-22.33,60.93-54.57,60.91-99S344.91,180.3,306.88,158.32Z" transform="translate(-1 -1)"/><path d="M231,201.77c23.28-13.24,57.13-5.12,74.58,17.69a61.37,61.37,0,0,1-86.08,86.08c-22.81-17.45-30.94-51.38-17.82-74.31,12.28,7.14,21.84,6.71,29.32-1.31C238.06,222.3,238.14,212.79,231,201.77Z" transform="translate(-1 -1)"/><line class="cls-2" x1="98.33" y1="388" x2="393" y2="124"/></g></g></svg>