<svg id="Capa_1" enable-background="new 0 0 512.003 512.003" height="512" viewBox="0 0 512.003 512.003" width="512" xmlns="http://www.w3.org/2000/svg"><g><path d="m.867 17.179 186.626 486.716c4.108 10.714 19.223 10.837 23.505.191l82.06-204.024c1.283-3.191 3.812-5.72 7.003-7.003l204.024-82.06c10.646-4.282 10.523-19.396-.191-23.505l-486.717-186.626c-10.204-3.912-20.223 6.107-16.31 16.311z" fill="#26a6fe"/><path d="m504.082 211.001-12.733 5.116c.227-4.92-2.408-9.953-7.884-12.053l-474.95-182.115c-2.09-.803-4.158-.998-6.104-.731l-1.544-4.035c-3.911-10.211 6.104-20.226 16.314-16.314l486.716 186.623c10.715 4.106 10.839 19.227.185 23.509z" fill="#0593fc"/></g></svg>